<?xml version="1.0" encoding="UTF-8"?>
<svg width="136px" height="130px" viewBox="0 0 136 130" version="1.1" xmlns="http://www.w3.org/2000/svg" xmlns:xlink="http://www.w3.org/1999/xlink">
    <!-- Generator: Sketch 53 (72520) - https://sketchapp.com -->
    <title>Empty Files</title>
    <desc>Created with Sketch.</desc>
    <g id="Page-1" stroke="none" stroke-width="1" fill="none" fill-rule="evenodd">
        <g id="Empty--State-Status-Icons" transform="translate(-1043.000000, -182.000000)">
            <g id="Empty-Files" transform="translate(1043.000000, 182.000000)">
                <g id="File-Icon">
                    <path d="M81.3313953,69.1287341 L78.6534531,67.5194454 L77.7897287,67.0004509 L77.3968464,67.9432984 L77.081043,68.7021756 C75.8244362,71.7219028 73.3266385,73.5976778 70.5628083,73.5976778 C67.7985377,73.5976778 65.30074,71.7219028 64.0450141,68.7026265 L63.7287703,67.9437493 L63.3363284,67 L62.4726039,67.5194454 L59.7946617,69.1287341 L59.1264975,69.5304926 L59.4299683,70.2600609 L59.7457717,71.0189381 C61.7934285,75.9414948 65.9380726,79 70.5628083,79 C75.1871036,79 79.3317477,75.9414948 81.3794045,71.0184872 L81.6956483,70.2600609 L82,69.5304926 L81.3313953,69.1287341 Z M51.5269556,67.5194454 L50.6632311,67.0004509 L50.2703488,67.9432984 L49.9545455,68.7021756 C48.6979387,71.7219028 46.2005814,73.5976778 43.4363108,73.5976778 C40.6720402,73.5976778 38.1746829,71.7219028 36.9185166,68.7026265 L36.6022727,67.9437493 L36.2102713,67 L35.3461064,67.5194454 L32.6681642,69.1287341 L32,69.5304926 L32.3034708,70.2600609 L32.6192741,71.0189381 C34.6669309,75.9414948 38.8115751,79 43.4363108,79 C48.0606061,79 52.2052502,75.9414948 54.252907,71.0184872 L54.5691508,70.2600609 L54.8735025,69.5304926 L54.2048978,69.1287341 L51.5269556,67.5194454 Z" id="Fill-1" fill="#9B9B9B"></path>
                    <path d="M58.0002101,94 C55.7904742,94 54,95.7912203 54,98 C54,100.2092 55.7904742,102 58.0002101,102 C60.2091057,102 62,100.2092 62,98 C62,95.7912203 60.2091057,94 58.0002101,94" id="Fill-3" fill="#9B9B9B"></path>
                    <polygon id="Fill-5" fill="#9B9B9B" points="136 44.1004342 136 47 124 47 124 44.728695 130.850455 36.8995658 124.175218 36.8995658 124.175218 34 135.776184 34 135.776184 36.271305 128.925729 44.1004342"></polygon>
                    <polygon id="Fill-7" fill="#9B9B9B" points="129.997805 17.8635705 130 22.9914438 110.001756 23 110 18.9830834 121.410634 5.1314759 110.286254 5.13597917 110.284498 0.0076555586 129.618036 0 129.619353 4.0164663 118.20828 17.8685241"></polygon>
                    <path d="M106.714913,112.448007 C106.714913,117.016134 102.991661,120.732382 98.4149231,120.732382 L17.5850769,120.732382 C13.0083394,120.732382 9.28508723,117.016134 9.28508723,112.448007 L9.28508723,36.5519928 C9.28508723,31.9843081 13.0083394,28.2676185 17.5850769,28.2676185 L39.8098171,28.2676185 L52.1038167,40.5380462 L52.7525719,41.1860232 L98.4149231,41.1860232 C102.991661,41.1860232 106.714913,44.9022705 106.714913,49.4703974 L106.714913,112.448007 Z M110.821037,37.0876242 C107.4811,33.7544131 103.074971,31.9184047 98.4149231,31.9184047 L56.5294439,31.9184047 L44.2358874,19.6475346 L43.586689,19 L17.5850769,19 C12.9245862,19 8.51845711,20.8355661 5.17896313,24.1692196 C1.83902601,27.5024307 0,31.9002702 0,36.5519928 L0,112.448007 C0,117.09973 1.83902601,121.497569 5.17896313,124.83078 C8.51845711,128.164434 12.9245862,130 17.5850769,130 L98.4149231,130 C103.074971,130 107.4811,128.164434 110.821037,124.83078 C114.160531,121.497569 116,117.09973 116,112.448007 L116,49.4703974 C116,44.8186748 114.160531,40.4212777 110.821037,37.0876242 L110.821037,37.0876242 Z" id="Fill-9" fill="#E1E0E1"></path>
                </g>
            </g>
        </g>
    </g>
</svg>